<svg xmlns="http://www.w3.org/2000/svg" viewBox="0 0 608.99 958.47"><defs><style>.cls-1{isolation:isolate;}.cls-2{opacity:0.6;}.cls-2,.cls-9{mix-blend-mode:multiply;}.cls-3{fill:#54686e;}.cls-4{fill:#fda271;}.cls-5{fill:#006d67;}.cls-6{fill:#fff;}.cls-7{fill:#005b54;}.cls-8{fill:#de7f50;}.cls-9{fill:#86aeb8;}.cls-15,.cls-9{opacity:0.5;}.cls-10{fill:#0cc;}.cls-11{fill:#cacfd1;}.cls-12{fill:#e8e8e8;}.cls-13{fill:#171111;}.cls-14{fill:#393333;}.cls-15{mix-blend-mode:color-dodge;}.cls-16{fill:#004664;}.cls-17{fill:#ff9800;}.cls-18{fill:#cdcbc8;opacity:0.4;mix-blend-mode:screen;}.cls-19{fill:#584f4f;}.cls-20{fill:#240101;}.cls-21{fill:#1a110e;}.cls-22{fill:#3b0301;}.cls-23{fill:#3c5b5b;}.cls-24{fill:#273b3b;}.cls-25{fill:#e2d0d8;}.cls-26{fill:#847e7e;}</style></defs><title>Doc</title><g class="cls-1"><g id="Layer_2" data-name="Layer 2"><g id="Layer_1-2" data-name="Layer 1"><g class="cls-2"><path class="cls-3" d="M539.58,939.68c-35.65-.21-73.13-.33-111.81-.33C191.52,939.35,0,943.63,0,948.91s191.52,9.56,427.77,9.56c38.68,0,145.58-9.67,181.22-9.88Z"/></g><path class="cls-4" d="M84,882.57c-.81,5.47.19,15.39.28,22.24.06,4.72-3.45,20.55-1.07,24.08C92,942,102.12,897.18,103,892.26Z"/><path class="cls-5" d="M220.81,429.27c3.7,22.35-19.78,55.57-29.64,87.17A106.76,106.76,0,0,0,188.42,527c-.17.78-.31,1.58-.45,2.36-7.17,41.34-35.48,97.68-35.1,158.11.77,121.28-46.88,205.22-51.46,219.68-6.63-.16-14.44-1.38-20.56-.54-.73-7.51-.41-43.16,3.39-92.12,1.39-17.92,3.24-37.64,5.68-58.41,2.65-22.51,6-46.26,10.15-70.31,20.91-120.66,26.4-250.63,27.37-262.58l95.89,4.31C222.48,428.34,221.28,427.73,220.81,429.27Z"/><path class="cls-6" d="M95.76,924.91l-10.23-1.47c-4.68-6-7.13.75-9.29,3.53-2.57,3.29-7.45,5.64-11.08,7.48-6.41,3.26-22.08,5.37-20.27,15.26,12.56,1.59,38.72,2.66,51.84,1.42,5.64-.55,1.33-5.13.25-13C96.25,932.77,96.75,930.16,95.76,924.91Z"/><path class="cls-7" d="M191.17,516.44A106.76,106.76,0,0,0,188.42,527c-.17.78-.31,1.58-.45,2.36-7.17,41.34-35.48,97.68-35.1,158.11.77,121.28-46.88,205.22-51.46,219.68-6.63-.16-14.44-1.38-20.56-.54-.73-7.51-.41-43.16,3.39-92.12,15,4.25,30.57-3.39,39.63-21.33,10.85-21.5,11.72-47.73,11.72-72.06,0-19.93-8-39.36-2.25-57.25,5.2-16.23,9-33.92,12.79-51.54,4.28-20.13,7-41.13,10.07-61.56,2.89-19.31,9.85-46.75,6.84-64.35Z"/><path class="cls-4" d="M206.88,886.06c.17,5.53,2.92,15.11,4.24,21.83.9,4.64.26,20.84,3.24,23.89,11,11.28,13-34.58,13-39.58Z"/><path class="cls-5" d="M258.14,649.1c-.29,9.28-3.41,20-1.8,31.52l.06.37c1.88,13.81,1.64,32,.09,52.2-.87,11.36-2.15,23.32-3.69,35.46-2.12,16.68-4.74,33.69-7.45,49.89-5,29.93-10.41,57.07-13.69,74.17-1.46,7.62-2.51,13.24-2.92,16.24-6.55,1-14.46,1.1-20.34,2.95-3.49-12.73-16.41-107.75-7.21-229.81.86-11.44,1.35-22.91,1.53-34.32.16-10,.08-20-.19-29.79q-.47-16.44-1.58-32.38c-1.67-24.73-4.32-48.28-7.15-69.59-5.52-41.58-11.71-74.64-12.73-91.42L256.56,444l14.23,3.66C272.89,492.94,259.29,612.26,258.14,649.1Z"/><path class="cls-6" d="M217,919.83c7.25-.73,8.6,5.31,9.89,8.18,1.53,3.41,4,4.46,6.38,6.47,4.18,3.54,14.82,6.4,12.85,16.17-8.77,1-30.73,1.74-39.68-.13-3.85-.8-1.36-3.41,2-11.94C210.46,933.55,210.15,920.51,217,919.83Z"/><path class="cls-7" d="M245.35,818.54c-5,29.93-10.41,57.07-13.69,74.17-1.46,7.62-2.51,13.24-2.92,16.24-6.55,1-14.46,1.1-20.34,2.95-3.49-12.73-16.41-107.75-7.21-229.81.86-11.44,1.35-22.91,1.53-34.32,1.32,28.18,2.63,56.33,2.63,84.79,0,22.2.16,48.52,13.45,67.53,5.17,7.38,13.09,15.72,22,18A17,17,0,0,0,245.35,818.54Z"/><path class="cls-8" d="M91.43,573.33c4.44,4.55,19.08,2,19.95,5.52,2.33,9.52-14,4.56-17.66,3.52Z"/><path class="cls-8" d="M89.88,566.19c4.45,4.54,19.08,2,20,5.52,2.34,9.52-14,4.56-17.66,3.52Z"/><path class="cls-8" d="M86.34,541.72c4.44,4.54,15.73,16.54,16.6,20.09,2.34,9.52-11.81,9.91-15.43,8.87Z"/><path class="cls-4" d="M78.48,547.47a181.18,181.18,0,0,1,5.08-29.94l14.84,8.2c-.28.23,3,5.35,3.93,7.44a23.17,23.17,0,0,1,1.91,10c-.28,6.74-1.18,12.41.32,19.61.73,3.5,5.89,17-2,12.76-5.78-3.12-3.82-15.5-8.34-18.8-1,5.32-1.19,17.51,3,21.83,3,3.16,12.95,6.1,10.17,11.51s-23.31-8-25.27-13.1C79.18,569.2,77.75,555.51,78.48,547.47Z"/><path class="cls-6" d="M123.07,261.5c-3.33,30-4.44,56-4.81,86.57-.41,34.35-3.45,51.13-2.15,85.57,0,0,4,74.18,5.37,97.88H76.38C72.73,503.18,66.56,442,65.85,436c-2.26-19.21-2.42-35.48-2.16-57,.44-38.09,1.83-47.71,3.58-85.58.85-18.54,7-64.64,11-82.76,1.6-7.19,4.7-18.4,14-22.8,4.78-2.27,15.12-6.05,20.06-8.3a14.39,14.39,0,0,0,2.5-1.33l-3.28,16.27C125.23,212.17,125.5,239.61,123.07,261.5Z"/><path class="cls-9" d="M123.07,261.5c-3.33,30-4.44,56-4.81,86.57-.41,34.35-3.45,51.13-2.15,85.57,0,0,4,74.18,5.37,97.88H76c-3.45-26.95,9.11-171.9,9.11-193.59,0-35.07.76-58.75,1.79-81.83,1.3-29.05,25.5,12.28,25.87-16.87.09-7.21.17-15.27-.82-22.41-.78-5.64-3.67-10.78-3.49-16.06.22-6,1.91-14,3.87-21.26a14.39,14.39,0,0,0,2.5-1.33l-3.28,16.27C125.23,212.17,125.5,239.61,123.07,261.5Z"/><path class="cls-10" d="M108.59,181.67c8.88-13.42,30.63-14.15,43.45-17L203.8,147c15,6.23,49.87,11.68,64.89,18.51C294,177,295,209.3,290.35,227.72c-11.4,45.64-19,275.53-13.23,300.86-25.18,7.23-163,10.4-161.06-1.54,5.75-35.69-10.24-255.38-10.92-290.11C104.89,224.13,100.83,193.4,108.59,181.67Z"/><path class="cls-6" d="M88.62,498c-1.85,61-3.6,121.89-4,155,0,0,69,13.81,72.1.76,7.95-33.82,2.17-122.27,1.06-191.15-.72-44.26-1.77-85.6-3.21-112-4.23-77.77-19.46-181.18-19.5-183,0,0-6.92,1.81-15.8,5.22h0c-14.33,5.5-33.78,15.17-37.57,28.14C77,216.94,93.81,300.64,93.81,318.26c0,15.06-2.3,85.93-4.6,160.86Q88.91,488.51,88.62,498Z"/><path class="cls-11" d="M157.77,462.54c-.06-.67-.12-1.34-.17-2-1.9-24.22-34.59-230.8-40.37-236.39,5.45-7.2,11.93-15.7,15.13-22.55-5.73-3.7-17.63-10.71-24.26-10.47,2.67-6.26,7.29-12.33,11.15-18.44h0c8.88-3.41,15.8-5.22,15.8-5.22,0,1.86,15.26,105.27,19.5,183C156,376.94,157.05,418.28,157.77,462.54Z"/><path class="cls-12" d="M155.21,283.6c5,1.72,8,.57,9.68-.86,3.8-3.26,4.52-10.64,2.09-21.34-1.47-6.47-5.07-16-7.69-23-1.28-3.41-2.61-6.94-2.69-7.57a.87.87,0,0,1-.38.77L155,229.75c-.78.52-.42,1.54.29,3.57.5,1.43,1.25,3.41,2.11,5.7,2.6,6.91,6.16,16.38,7.6,22.69,2.21,9.72,1.68,16.57-1.49,19.3-2.23,1.91-5.87,1.72-10.55-.56l-.67,1.95A26.66,26.66,0,0,0,155.21,283.6Z"/><path class="cls-13" d="M147.09,279.7c-.42,2,1.36,4.29,4,5.19s5.07,0,5.48-2-1.36-4.29-4-5.18S147.5,277.73,147.09,279.7Z"/><path class="cls-12" d="M135.59,282.88c-4.6,2-7.82,1.07-9.82-.24-4.55-3-7-10.27-7.2-21-.1-6.52,1.17-16.23,2.09-23.32.45-3.46.92-7.05.84-7.67a1.15,1.15,0,0,0,.57.74l.73-1.91c.89.47.78,1.5.57,3.56-.16,1.45-.42,3.46-.72,5.79-.92,7-2.18,16.64-2.08,23,.15,9.79,2.32,16.55,6.12,19.06,2.67,1.76,6.24,1.34,10.34-1.21l1.13,1.88A19.76,19.76,0,0,1,135.59,282.88Z"/><path class="cls-13" d="M142.72,278.51c.88,1.93-.33,4.34-2.7,5.39s-5,.34-5.91-1.6.32-4.34,2.7-5.39S141.83,276.58,142.72,278.51Z"/><path class="cls-14" d="M119.18,239.71c.14,0,.29,0,.4.08,2.35,1.62,3.14,1.16,4.7,2.06a46.74,46.74,0,0,1,1-6.29c4.25-18.16,18.74-18.66,28.11-2.76a48.36,48.36,0,0,1,3.66,7.83c2.34-.91,1.9-.67,4.27-1.5-3.48-11.57-18.13-38.93-26.32-39.92C124.88,198,121.35,228,119.18,239.71Z"/><g class="cls-15"><path class="cls-16" d="M125.26,235.56c4.25-18.16,18.74-18.66,28.11-2.76-4-9.9-13.56-28.3-18.32-28.88C128.27,203.09,125.06,232.34,125.26,235.56Z"/><path class="cls-17" d="M125.49,239.14a.68.68,0,0,0,0,.33C125.62,241.73,125.59,241,125.49,239.14Z"/></g><path class="cls-14" d="M133.35,189.43A79.11,79.11,0,0,1,137,176.56a53.28,53.28,0,0,1,4.76-10.14,33.27,33.27,0,0,1,7.51-6.67,25.45,25.45,0,0,1-.19,5c-2.11.19-3.84,3.46-4.24,4.13a56.71,56.71,0,0,0-4.39,9.65,74.51,74.51,0,0,0-3.2,11.61,33.1,33.1,0,0,0-.6,10.36c.32,2.51-3.6,2.83-3.92.31A36.85,36.85,0,0,1,133.35,189.43Z"/><path class="cls-4" d="M215.38,151.31c.6,12.44-45.25,77.53-45.25,77.53s-17-40.52-20.55-59a21.12,21.12,0,0,1-.54-7c.19-1.07.23-6.73.32-7.68a47.64,47.64,0,0,0,.11-7.27c-.37-6.92-1.93-13.85-3.27-20.11l54.85-27.94a147.71,147.71,0,0,0-.93,15.46,104,104,0,0,0,1.25,17.16,85.12,85.12,0,0,0,4,15.79C206,150,214.66,149.69,215.38,151.31Z"/><path class="cls-6" d="M191.22,665.21c16.38.83,85.36-10,97.84-15.68-1.9-13.11-5.61-78.6-8.89-148.25-.41-8.64-.81-17.35-1.2-26-3.24-72.17-5.7-142.41-4.92-157.76,1.54-29.93,25.52-115.9,19.18-132-5.1-13-31.3-22.64-50.61-28.14h0c-12-3.41-21.3-5.22-21.3-5.22,0,1.85-20.56,105.27-26.26,183-1.94,26.44-3.36,67.78-4.32,112C188.65,542.93,191.14,664.91,191.22,665.21Z"/><path class="cls-11" d="M190.74,447.19c.07-.67.15-1.34.22-2,2.55-24.22,46.6-230.8,54.38-236.39-7.33-7.2-16.07-15.7-20.37-22.56,7.71-3.69,23.74-10.7,32.68-10.46-3.61-6.26-9.83-12.33-15-18.44h0c-12-3.41-21.3-5.22-21.3-5.22,0,1.85-20.56,105.27-26.26,183C193.12,361.59,191.7,402.93,190.74,447.19Z"/><path class="cls-12" d="M198.11,244.35a16.16,16.16,0,1,0,31.73-6.19c-.11-.56-.25-1.11-.41-1.64a16.16,16.16,0,0,0-31.56,6.14A16.76,16.76,0,0,0,198.11,244.35Z"/><path class="cls-18" d="M197.87,242.66a16.16,16.16,0,0,0,31.56-6.14,16.16,16.16,0,0,0-31.56,6.14Z"/><path class="cls-19" d="M201.39,239.72a10.74,10.74,0,1,0,8.49-12.61A10.73,10.73,0,0,0,201.39,239.72Z"/><path class="cls-14" d="M205.9,238.84a6.14,6.14,0,1,0,4.86-7.21A6.14,6.14,0,0,0,205.9,238.84Z"/><path class="cls-14" d="M217.62,161.07c-2.06-4.7-8.17-9.72-12.21-12.83a32.22,32.22,0,0,1-1.78-6.4l5.61,3.33c5.18,3.84,8.56,6.32,11.69,12.26,2.93,5.57,3.93,11.91,4.06,18.13.28,14-3.93,27.92-7.08,41.43-1.79,7.69-3.46,15.47-3.81,23.37-.13,2.94-4.68,2.59-4.55-.35.62-13.91,4.93-27.45,7.89-41C220.09,187,222.78,172.87,217.62,161.07Z"/><path class="cls-4" d="M102.71,277.78c3.73-.8,7.73.78,11.26,1.9,5.24,1.67,10.45,1.72,15.55,3,11.59,2.92,11.19,17.84,14.68,27.22l-14.75,1.31c.68-2-13.35-13.05-16.37-16.1C109.6,291.63,100.13,283.44,102.71,277.78Z"/><path class="cls-6" d="M249.38,406.05a17.15,17.15,0,0,0,2.57,5.18c5.23,7.39,16.37,13.74,26.53,14.78,7.79.81,15-1.51,18.52-8.88q1.72-3.63,3.2-7.54c13.19-34.84,11.88-85.24,11.25-127.45-.54-35.88,1.09-102.69-36.78-113.66l-9.67-.09c-12.42,10-16.05,45-17,59.8-2.37,38-1.45,81.66-.37,120.3,0,1.28.07,2.55.11,3.83C248.28,370.49,244.43,388.52,249.38,406.05Z"/><path class="cls-11" d="M166.93,366.17c9.07,9,17.79,17.39,30.79,26.53,15.25,10.73,29.89,18,47.4,24.79,8.66,3.37,23.44,10.28,33.36,8.52,7.79.81,15-1.51,18.52-8.88q1.72-3.63,3.2-7.54a59.66,59.66,0,0,1-6.58,2.29c-13.4,3.83-27.54,3-41.67-.65-30.56-7.93-61-29.16-83.74-45.38Z"/><path class="cls-11" d="M234.23,480.83c3.06,5.7,3.71,12.58,10.28,15.65,7.24,3.39,14.47-.58,21.36,4.2,5.84,4,10.32,4.76,14.3.6-.41-8.64-.81-17.35-1.2-26C264.35,477.83,241,480.1,234.23,480.83Z"/><path class="cls-11" d="M88.62,498A17.23,17.23,0,0,0,95,496.48c6.58-3.07,7.23-10,10.29-15.65-2.95-.31-9-.92-16.11-1.71Q88.91,488.51,88.62,498Z"/><path class="cls-20" d="M100.68,40c-1.84,16.85,7.26,40.3,15.09,54.14-3.42-20.34,4.17-38.66,20-51.07l1.52-30.53C120.43,12.48,102.91,19.46,100.68,40Z"/><path class="cls-8" d="M201.37,132.45c-.74,2.07-1.47,4-2.06,5.71-3,8.57-10,19.13-16.78,25.32-6.55,6-14.7,11.56-23.89,10.79-4.31-.36-7.2-2-9.06-4.39a21.12,21.12,0,0,1-.54-7c.19-1.07.23-6.73.32-7.68a47.64,47.64,0,0,0,.11-7.27l50.65-32.59A104,104,0,0,0,201.37,132.45Z"/><path class="cls-8" d="M123,115a.51.51,0,0,1-.13.09,6.59,6.59,0,0,1-.44.72Z"/><path class="cls-4" d="M115.36,93.72c5.23,23.2,5,30,20.09,53.19,5.28,8.08,9.84,18.83,26.94,16.44,13-1.82,27.06-18.61,32.69-25.83,17.48-22.44,11.21-38.28,5.63-63.06-7.62-33.82-34.07-61.14-57-57C115.09,22.51,107.74,59.89,115.36,93.72Z"/><path class="cls-8" d="M161,96c.81.4,1.12-2.25,2.4-2.16,4.28.64,10.57-.69,14.31-2.7,2.34-1,4.64.92,4.62.87-.63-1.87-2.78-7.25-5.53-8.59a9.41,9.41,0,0,0-5.4-.69c-5.3.71-8.71,2.49-10.27,5.49C160.4,89.57,160.87,94,161,96Z"/><path class="cls-6" d="M161,96a16.61,16.61,0,0,0,3.24,1c4.37,1.09,10.77-.12,14.43-2.43A23.89,23.89,0,0,0,182.3,92a8.16,8.16,0,0,0-4.58-5.21,9.87,9.87,0,0,0-5.37-.49c-5.33.76-8.84,2.14-10.43,4.92A8.38,8.38,0,0,0,161,96Z"/><path class="cls-21" d="M162,91.71a16.9,16.9,0,0,0,2.18,5.23c4.37,1.09,10.77-.12,14.43-2.43a19.35,19.35,0,0,0-.44-6.09,14.09,14.09,0,0,0-.48-1.67,9.87,9.87,0,0,0-5.37-.49c-5.33.76-8.84,2.14-10.43,4.92C162,91.36,162,91.53,162,91.71Z"/><path class="cls-6" d="M172.68,91.49c.21.92.95,1.53,1.65,1.31a1.69,1.69,0,0,0,.87-2.06,1.45,1.45,0,0,0-1.65-1.27A1.64,1.64,0,0,0,172.68,91.49Z"/><path class="cls-8" d="M119.92,102.15c.67.43.84-2.19,1.9-2.06a18,18,0,0,0,11.72-2.18c1.89-1,3.86,1.07,3.84,1-.59-1.88-2.54-7.3-4.85-8.72a6.92,6.92,0,0,0-4.49-.88c-4.35.53-7.1,2.18-8.28,5.1C119.23,95.81,119.77,100.2,119.92,102.15Z"/><path class="cls-6" d="M119.92,102.15a12.51,12.51,0,0,0,2.71,1.1,14.41,14.41,0,0,0,11.82-1.92,18,18,0,0,0,2.93-2.4,8.67,8.67,0,0,0-4-5.34,7.15,7.15,0,0,0-4.44-.67c-4.38.58-7.23,1.83-8.44,4.53A9.3,9.3,0,0,0,119.92,102.15Z"/><path class="cls-21" d="M120.64,98a20.41,20.41,0,0,0,2,5.27,14.41,14.41,0,0,0,11.82-1.92,23.63,23.63,0,0,0-.57-6c-.13-.59-.29-1.15-.46-1.69a7.15,7.15,0,0,0-4.44-.67c-4.38.58-7.23,1.83-8.44,4.53C120.57,97.63,120.6,97.8,120.64,98Z"/><path class="cls-6" d="M129.42,98.13c.21.92.85,1.55,1.41,1.36s.85-1.1.65-2-.84-1.49-1.4-1.32S129.21,97.21,129.42,98.13Z"/><path class="cls-22" d="M154.74,68.85c9.59-2,20.14-3.39,27.47-2.32l1.9,8.68c-2.84.69-5.92.73-8.59,1.91-.76-2.12-2.07-3.84-2.68-6.06.35,1.68.33,4.67.7,6.45-4.87,2.19-9.38,2.69-15.1,3.93A63.41,63.41,0,0,1,154.74,68.85Z"/><path class="cls-22" d="M134.88,72.88c-7.27,1.13-15.1,3-20.07,6l.67,7.9c2.18-.24,4.37-1.1,6.54-.88.06-2,.59-3.85.51-5.91.13,1.53.85,4.06,1,5.67,4,.45,7.3-.44,11.65-1A67.15,67.15,0,0,0,134.88,72.88Z"/><path class="cls-8" d="M143.9,133.07l.4.05c.26,0,.64.09,1.11.14s1.06.09,1.72.1,1.41,0,2.21,0,1.69-.12,2.6-.22,1.88-.26,2.88-.44,2-.41,3-.66,2.05-.55,3.07-.87,2-.69,3-1.08,1.92-.79,2.81-1.26,1.72-.92,2.5-1.4a25.21,25.21,0,0,0,2.09-1.5,17.31,17.31,0,0,0,1.62-1.47,13.68,13.68,0,0,0,1.11-1.3,11.12,11.12,0,0,0,.64-.91l.22-.34s0,.14-.1.39a7.08,7.08,0,0,1-.36,1.09,10.47,10.47,0,0,1-.81,1.6,12.72,12.72,0,0,1-1.4,1.89,16.06,16.06,0,0,1-2,1.93,20.32,20.32,0,0,1-2.53,1.79,26.86,26.86,0,0,1-2.92,1.53,31.16,31.16,0,0,1-3.18,1.22c-1.09.32-2.18.62-3.27.85a29.22,29.22,0,0,1-3.24.49,25,25,0,0,1-3.06.15,21.2,21.2,0,0,1-2.74-.17,15,15,0,0,1-2.29-.41,13,13,0,0,1-1.7-.52,7.36,7.36,0,0,1-1.05-.45Z"/><path class="cls-8" d="M146,118.74c-.37-7.37-1.6-16.93-1.6-24.34,0,0-2.61,20.34-.41,28.95a62.23,62.23,0,0,1,14-3A113.07,113.07,0,0,0,146,118.74Z"/><path class="cls-6" d="M126.14,117.94h0c-5.1,0-9.51-2.79-12.74-8.07-2.7-4.41-4.54-11-4.1-11.87,2.76-5.45,13.43-8.83,21.74-8.83,5.72,0,9.28,1.57,10,4.4a21.77,21.77,0,0,1-2.59,17.29,14.78,14.78,0,0,1-9.85,6.88A16.25,16.25,0,0,1,126.14,117.94ZM111.52,98.71c.5,2.42,3.94,16.94,14.62,16.94h0a14.18,14.18,0,0,0,2.12-.17,12.54,12.54,0,0,0,8.29-5.87,19.41,19.41,0,0,0,2.29-15.46c-.43-1.66-3.42-2.69-7.8-2.69C123.72,91.46,114.08,94.42,111.52,98.71Z"/><path class="cls-6" d="M169.85,110h0c-6.5,0-11.84-3.43-15.45-9.93-1.79-3.21-3.7-8.8-3.11-9.75,3.72-6.1,17.69-9.36,26.34-9.36,4.29,0,9.59.72,10.54,4.16a19.92,19.92,0,0,1-2.47,16,18.65,18.65,0,0,1-12.55,8.56A20.87,20.87,0,0,1,169.85,110ZM153.47,91.13c.55,2.52,4.18,16.54,16.38,16.54h0a18.88,18.88,0,0,0,2.94-.24,16.4,16.4,0,0,0,11-7.53A17.46,17.46,0,0,0,186,85.69c-.42-1.5-3.69-2.48-8.34-2.48C168.72,83.21,156.74,86.57,153.47,91.13Z"/><path class="cls-6" d="M141.17,94.28,139,93.5c.84-2.31,3.21-4,6.36-4.48s6.32.44,7.83,2.4l-1.82,1.39c-1-1.29-3.26-1.9-5.65-1.52C143.94,91.56,141.81,92.5,141.17,94.28Z"/><path class="cls-23" d="M8.64,237.6l40.08,159c1.76,7,8.19,12.36,14.35,12l81.41-5c6.16-.38,9.87-6.37,8.28-13.37L116.74,231c-1.58-7-8.09-12.37-14.53-12l-85.1,5.23C10.67,224.61,6.88,230.61,8.64,237.6Z"/><path class="cls-24" d="M8.64,237.6l40.08,159c1.76,7,8.19,12.36,14.35,12l78.85-4.84c6.16-.38,9.86-6.37,8.27-13.37L114.07,231.12c-1.59-7-8.1-12.36-14.54-12l-82.42,5.07C10.67,224.61,6.88,230.61,8.64,237.6Z"/><polygon class="cls-25" points="54.01 378.17 20.76 233.47 102 230.05 137.84 375.27 54.01 378.17"/><path class="cls-26" d="M31.59,231.33l14.62-.88-.32-5.29-6.17.38a1.33,1.33,0,1,1-.15-2.65L79.2,220.5a1.33,1.33,0,0,1,.16,2.65l-6.17.37.32,5.29,14.61-.88c1-.07,2,1.2,2.08,2.82l.09,1.47L30,235.85l-.09-1.46C29.77,232.76,30.54,231.4,31.59,231.33Z"/><path class="cls-4" d="M169.64,341.81c-.89,8.77-20.92,1.21-26.48,1.55s-12.19-1.9-17.3-3.51c-1.89-.61-3.69-1.23-5.44-1.93-7.43-3-13.89-7.32-21.53-17.33-3.37-4.41-3-10.24-7-12.86-2-1.34-3.69-5.49-4.41-8.82-.79-3.67.5-4.66,5.25-4.39l.22,0,1.1.08,1.4.14a131.37,131.37,0,0,1,13.35,2.36c8.45,1.83,19.66,5.62,26.29-1.05l4.49-.48c1.45,3.19,9.43,15,15.13,22.06C157.61,321.21,170.37,334.62,169.64,341.81Z"/><path class="cls-8" d="M120.42,337.92c-7.43-3-13.89-7.32-21.53-17.33-3.37-4.41-3-10.24-7-12.86-2-1.34-3.69-5.49-4.41-8.82-.79-3.67.5-4.66,5.25-4.39l.22,0,1.1.08,1.4.14a7.78,7.78,0,0,0,.36,3.56c1.26,3.94,6.53,7,9.57,9.13-5.79,6.16,4.64,8.75,7,12.05,1.44,2,.16,5.68,1.87,8.52,1.28,2.12,4.2,3.58,6.1,4.85A9.22,9.22,0,0,0,120.42,337.92Z"/><path class="cls-6" d="M147.67,347.76c7.41,6.61,13.41,12.62,19.26,18.41,9.07,9,17.79,17.39,30.79,26.53,15.25,10.73,29.89,18,47.4,24.79,8.66,3.37,23.44,10.28,33.36,8.52a12.87,12.87,0,0,0,3-.88c5.13-2.21,9.42-7.36,12.12-13.25,3.14-6.81,4.15-14.62,1.84-20-6.38-15-15.82-30.93-31-38.06a76.62,76.62,0,0,0-16.83-5.29c-15.35-3.26-32.45-4.2-45.68-10.26-15.45-7.07-38-12.8-48.68-25.42Z"/><path class="cls-11" d="M263.28,242.51v-.81c3.1,18.12-3.95,91.61,1.58,100.46,6.44,10.28,14.12,17.74,14.51,31-8.14-10.88-16.49-25.22-30.22-28.61C251.77,330.36,259.46,245.08,263.28,242.51Z"/><path class="cls-11" d="M153.29,312.81c13.25,10.44,72.94,28.58,83.1,30.08,7.72,1.15,19.6,1.7,25.68,5.67l12,13.16C259.62,349,236,350.58,218.72,346.2,196.85,340.65,171.76,334.5,153.29,312.81Z"/><path class="cls-11" d="M276.12,367l-4.85-5.32A33,33,0,0,1,276.12,367Z"/><path class="cls-22" d="M212,65.66c-.52,5.94-2.39,11.45-3.05,17.55-.94,8.64-3.76,10.17-11.19,13.23-7.54-19.75,3.05-35.11-11.86-37.56-14.18-2.32-26.26-2.64-39.48-9.25a12.41,12.41,0,0,0-4.68-1.26c-9.12-.67-19.45,8.07-25.09,16.25.22-13.86,2.77-25,8.21-37.88A56.07,56.07,0,0,1,137.1,9.19c3.06-3.13,51.16-25.45,72.49,13.51.95,1.74,1.84,3.59,2.68,5.57C217.1,39.71,213.1,53.21,212,65.66Z"/><path class="cls-22" d="M146.44,17.07c-6.56-4.1-12.5-1.06-18.77,2.42-7.28,4.05-11.73,18.69-13.11,22.91-4.33,13.21.24,19.7,2.11,22.22Z"/><path class="cls-20" d="M212,65.66c-.52,5.94-2.39,11.45-3.05,17.55-.94,8.64-3.76,10.17-11.19,13.23-7.54-19.75,3.05-35.11-11.86-37.56-14.18-2.32-26.26-2.64-39.48-9.25a12.41,12.41,0,0,0-4.68-1.26c2.48-.69,5.11-2.71,7.73-3.33a26.82,26.82,0,0,1,10.18,0c7.74,1.19,14.3,2.46,21.85,3.28,7.1.77,14.52,4.26,16.15-3.93,1.68-8.42-8.14-22-19.58-28.5,17.15,1.52,21.4,17.5,26.81,23,2.34-3.52,5-10.81,4.69-16.2.95,1.74,1.84,3.59,2.68,5.57C217.1,39.71,213.1,53.21,212,65.66Z"/><path class="cls-4" d="M199.49,87.32c-1.69,9.18,1.87,17.54,8,18.67s12.4-5.41,14.1-14.6-1.87-17.54-8-18.67S201.19,78.13,199.49,87.32Z"/><path class="cls-8" d="M209.35,77.45c-4.31,1.32-4.22,5.3-6,8.71,8-3,6,12.19.24,8l-.38.76c9.45,7.64,14.31-12.1,5.09-10.66,2.26-3.44,6.73-5.71,9-.92C216.65,79.36,214,76,209.35,77.45Z"/></g></g></g></svg>