<svg xmlns="http://www.w3.org/2000/svg" viewBox="0 0 71.47 144.52"><defs><style>.cls-1{isolation:isolate;}.cls-2{fill:#fda888;}.cls-3{fill:#342c3b;}.cls-4{fill:#f77b54;}.cls-5{fill:#fff;}.cls-6{fill:#fc6d89;}.cls-10,.cls-7{opacity:0.6;}.cls-8{fill:#defcf8;}.cls-9{opacity:0.46;}.cls-10{mix-blend-mode:overlay;}.cls-11{fill:#131b48;}.cls-12{fill:#93105d;}</style></defs><title>Doc2</title><g class="cls-1"><g id="Layer_2" data-name="Layer 2"><g id="_1" data-name="1"><path class="cls-2" d="M68.89,33.41A11.47,11.47,0,0,0,70,30.11c0-.17,1.45-3.62,1.46-3.95a1,1,0,0,0-.71-.79c-.27,0-1.56,3.61-1.71,3.44s1.33-4.71,1.34-5.1-.35-.56-.67-.57-1.66,5.25-1.81,5,1-5.22.93-5.55a.53.53,0,0,0-.67-.39c-.32.07-1.47,5.73-1.63,5.56s.76-4.9.56-5.35-.47-.23-.74,0-1.17,6.31-1.17,6.31a10,10,0,0,0-.13-2.25c-.2-.4-.52-.24-.85,0s-.8,4.79-.77,5.45a13.3,13.3,0,0,0,.4,2l-3.23,4.7c.32,1.43,1.93,2.25,2.81,3.38L67,36A26.13,26.13,0,0,1,68.89,33.41Z"/><path class="cls-3" d="M24.06,6.86a9.66,9.66,0,0,0,.88,6.28,9.52,9.52,0,0,0,1.44,2.09c-2.56.08-4.73,1.23-5.18,2.76-.59,2,1.57,5.35,5.91,6.1a41.31,41.31,0,0,0,6.2-2.91C37.94,18.52,41,16.79,42,13.36a13.19,13.19,0,0,0-.09-7.17,8.59,8.59,0,0,1-.5-1.41,6.27,6.27,0,0,0-.59-2C39.92,1.27,35.39-1,30.77.46,30.2.64,25.17,2.3,24.06,6.86Z"/><path class="cls-2" d="M29.1,14l.81,9.33s2.86,10.46,7,9.81,1.72-11.37,1.72-11.37l-3.3-8.21Z"/><path class="cls-4" d="M35.33,13.51l2.32,5.77a11.31,11.31,0,0,1-8.24-1.8L29.1,14Z"/><path class="cls-2" d="M28.63,13.36A7.08,7.08,0,1,0,32,3.91,7.09,7.09,0,0,0,28.63,13.36Z"/><path class="cls-2" d="M30.49,12A2.15,2.15,0,1,1,28.41,9.8,2.15,2.15,0,0,1,30.49,12Z"/><path class="cls-3" d="M39,9.06c.08.16.21.32.38.31a.35.35,0,0,0,.27-.22,1,1,0,0,0,.06-.39,1.14,1.14,0,0,0-.12-.48A.46.46,0,0,0,39.24,8C38.69,8,38.83,8.73,39,9.06Z"/><path class="cls-3" d="M36.75,10.05c0-.06,1-.58,1.4-.19s-.39,1.52-.43,1.5.44-.85.12-1.21S36.76,10.11,36.75,10.05Z"/><path class="cls-3" d="M33.82,7.29a.48.48,0,0,1,.48,0c.14.14.08.39,0,.56a1.76,1.76,0,0,1-1,.88.86.86,0,0,1-.42,0,.45.45,0,0,1-.33-.25C32.28,8,33.44,7.4,33.82,7.29Z"/><path class="cls-3" d="M38.33,6.37c-.17,0-.36.11-.41.27s.09.37.25.48a1.8,1.8,0,0,0,1.32.27.79.79,0,0,0,.39-.16.44.44,0,0,0,.19-.37C40,6.28,38.72,6.29,38.33,6.37Z"/><path class="cls-5" d="M38.52,14.43a2.66,2.66,0,0,1-2.12.37c-.87-.25-1.63-1-1.45-1.42s.82-.14,2.31-.48,1.84-.74,2.09-.52S39.34,13.82,38.52,14.43Z"/><path class="cls-5" d="M39.31,8.19a.18.18,0,0,0-.16.2.17.17,0,0,0,.19.16.18.18,0,0,0,.15-.2A.18.18,0,0,0,39.31,8.19Z"/><path class="cls-3" d="M34,10.19c.09.16.23.32.39.3a.32.32,0,0,0,.26-.23.84.84,0,0,0,0-.39,1.1,1.1,0,0,0-.13-.47.48.48,0,0,0-.36-.26C33.64,9.1,33.81,9.87,34,10.19Z"/><path class="cls-5" d="M34.26,9.31a.19.19,0,0,0,.05.37.18.18,0,0,0,.14-.21A.2.2,0,0,0,34.26,9.31Z"/><path class="cls-4" d="M33.44,11.37c0-.25.79-.53,1.21-.63.23-.05,1-.23,1.08,0s-.46.81-1.14.94C34.07,11.76,33.46,11.57,33.44,11.37Z"/><path class="cls-4" d="M39,9.93c0-.17.47-.25.89-.32s.91-.15,1,0-.4.72-1,.76S39,10.11,39,9.93Z"/><path class="cls-4" d="M28.87,12.65l0,0a.18.18,0,0,0,0-.27,3.14,3.14,0,0,0-1.63-.6.21.21,0,0,0-.21.18.19.19,0,0,0,.18.21,2.7,2.7,0,0,1,1.38.48A.21.21,0,0,0,28.87,12.65Z"/><path class="cls-3" d="M33.38,6.8c-2,.62-2.93.11-3.7,1-1.32,1.52.14,4.62-.36,4.78-.34.12-.6-1.36-2.16-2.52a2.39,2.39,0,0,1-1-1.16,2,2,0,0,1,.07-1.15,9,9,0,0,1,4.73-5.53,10.39,10.39,0,0,1,5.43-.68c1.27.07,1.91.11,2.09.51C38.89,3,36.46,5.81,33.38,6.8Z"/><path class="cls-3" d="M38,2.26a4.89,4.89,0,0,1,3.47,2.63,8.88,8.88,0,0,1,.49,1.3l.4,1.24.2.62c0,.08.16.36,0,.42s-.33-.15-.41-.19L41.72,8a8.9,8.9,0,0,1-.79-.58A8.65,8.65,0,0,1,39.57,6a8.41,8.41,0,0,1-1-1.69A7.77,7.77,0,0,1,38,2.48S38,2.26,38,2.26Z"/><path class="cls-3" d="M47.45,140.25c1.56.81,2.8,1.59,2.85,2.05a8.42,8.42,0,0,1,0,2.22L35,142.93a14,14,0,0,1,.23-4.52C38.48,141.26,43.42,142.83,47.45,140.25Z"/><path class="cls-2" d="M34.31,107.43l8.82,1.75-2.37,28s3.88,1.58,6.69,3.05c-4,2.58-9,1-12.19-1.84a2.5,2.5,0,0,1,.56-1c0-4.44-.17-9-.4-13.74C35.16,118,34.78,112.63,34.31,107.43Z"/><path class="cls-2" d="M2.76,129.25a8.71,8.71,0,0,1,1.56-.49l13.62-22,10.3,1.46L8.4,131.33s.69,3.73,1,7A13.17,13.17,0,0,1,2.76,129.25Z"/><path class="cls-3" d="M2.76,129.25a13.17,13.17,0,0,0,6.68,9c.25,2.25.33,4.26-.1,4.59a8.34,8.34,0,0,1-2,1.17L0,131.68A5.27,5.27,0,0,1,2.76,129.25Z"/><path class="cls-6" d="M29.86,22.67,25,25S26.5,50,25.63,52.89,19.89,61.5,19.39,67,22.7,99.5,22.7,99.5l-4.76,7.26s17.16,7.45,25.19,2.42c0,0,5.71-39.06,4.38-48S44.69,46.91,45,44.42s.33-18.73.33-18.73l-6.73-4a4.7,4.7,0,0,1-3.32,3.65A4.79,4.79,0,0,1,29.86,22.67Z"/><path class="cls-5" d="M38.63,24.14c4.23,10.18,0,22.78,0,22.78l.26,45.4a51.49,51.49,0,0,0,10.79,0l-.7-28.14-.1-4-.36-14.64s2.22,7.11,2.75,8.09,1.69,3.1,4.88,2S67.57,38.24,67.57,38.24l-5.33-5.12-6.39,10.8s-6.13-17.31-7.46-18.55-9.76-3.65-9.76-3.65C38.89,22.23,38.41,23.61,38.63,24.14Z"/><g class="cls-7"><path class="cls-8" d="M39,25.16c-.12-.34-.26-.68-.4-1-.22-.53.26-1.91,0-2.42,0,0,1.29.36,2.94.89A4.55,4.55,0,0,1,39,25.16Z"/></g><g class="cls-7"><path class="cls-8" d="M48.05,39.5C49.13,44.93,50.7,54.2,57,55a3,3,0,0,1-.89.58c-3.19,1.15-4.35-1-4.88-2s-2.75-8.08-2.75-8.08l.24,9.92A54.53,54.53,0,0,1,48.05,39.5Z"/></g><path class="cls-5" d="M30.49,21.81S22.26,24,21.82,24.4s-18.9,15.86-20.23,18S1.2,47,2.18,48.29,16.86,59.87,16.86,59.87L21,55.08,10,44.91l9.85-5S22,52.28,22,53.56,18,65.9,17.94,68s0,22,0,22,6.93,2.82,10,2.7l5.45-45.5s-3.91-11.14-1.74-23C31.81,23.24,30.47,22.44,30.49,21.81Z"/><g class="cls-9"><path class="cls-8" d="M21.69,51c-.59-4-1.8-11.13-1.8-11.13l-8.57,4.39,10.5-7.87a56.07,56.07,0,0,0,.65,6.06c.4,2.44.83,4,.32,6A8.93,8.93,0,0,1,21.69,51Z"/></g><g class="cls-7"><path class="cls-8" d="M27.24,22.71l3.25-.9c0,.63,1.13,1.42,1.15,2.33,0,.55,0,1.16.06,1.79A12.07,12.07,0,0,1,27.24,22.71Z"/></g><g class="cls-10"><path d="M28.43,66.48l-9.07-4c.36-1.17.76-2.39,1.12-3.56l8.41,3.71C28.74,63.91,28.58,65.19,28.43,66.48Z"/></g><g class="cls-7"><path class="cls-8" d="M43.27,62.62c.16,1.28.31,2.57.46,3.86l5.21-2.3-.1-4Z"/></g><path class="cls-5" d="M38.63,19.36l1.63,2.84s-.72,1.63-1.63,1.94l-1.71-3.91A3.21,3.21,0,0,0,38.63,19.36Z"/><path class="cls-5" d="M32.28,20.54s-2.87-.41-3.3-1.08l-.73,3s2.34,2,3.39,1.71Z"/><polygon class="cls-11" points="38.8 45.52 39.32 43.77 32.81 42.68 32.28 44.54 38.8 45.52"/><polygon class="cls-12" points="19.46 66.19 35.72 69.11 43.9 46.16 27.64 43.24 19.46 66.19"/><path class="cls-2" d="M20.37,55.82l4,1.87a12.12,12.12,0,0,1,1.73-2.22c.59-.39,5.07-2.48,5.45-2.28s.7.41.45.82a9.92,9.92,0,0,1-2,1.37s6.12-2.52,6.47-2.38.69.28.4.72-5.16,2.19-5.23,2.43,5.79-1.81,6-1.54a.59.59,0,0,1,0,.86c-.26.27-5.47,1.89-5.64,2.19s5.44-1.34,5.61-1a.68.68,0,0,1-.15,1c-.35.2-5.38,1.31-5.45,1.55s4-.54,4.14-.29A1.06,1.06,0,0,1,35.92,60c-.3.17-4.3.71-4.45.8s-3,1-3.67.76a31.48,31.48,0,0,0-3.49-.35l-7.1-1.71Z"/></g></g></g></svg>